PathFileType	4	(X/Y/Z)	Walk8.trc
DataRate	CameraRate	NumFrames	NumMarkers	Units	OrigDataRate	OrigDataStartFrame	OrigNumFrames
200.000000	200.000000	4	69	mm	200.000000	752	868
Frame#	Times		RCAR		LowerBodyModelVer		LMT5		LTB1		LACR1		LTB2		LFHD		LMT1		RUA1		LToe		RFHD		RASI		RElbow		LUA1		STRN		RACR1		RFA1		RTH3		CLAV		RBHD		LTH3		RWRU		LCAR		RTH2		RLFC		LTH1		RTH1		RBack		RTB2		RTB4		LTH2		RTB3		LFA1		LElbow		LWRR		LLFC		C7		RMT1		RTH4		LPSI		RToe		RTB1		LTB4		LWRU		LTH4		LElbowM		LTB3		RPSI		LMMAL		SACR		RLMAL		RMMAL		LBHD		RCAL		RMT5		RWRR		T10		LASI		LCAL		LHJC		MidPelvis		OPelvis		PELOrigin		RHJC		XPelvis		YPelvis		ZPelvis		LLMAL		RElbowM
			X1	Y1	Z1	X2	Y2	Z2	X3	Y3	Z3	X4	Y4	Z4	X5	Y5	Z5	X6	Y6	Z6	X7	Y7	Z7	X8	Y8	Z8	X9	Y9	Z9	X10	Y10	Z10	X11	Y11	Z11	X12	Y12	Z12	X13	Y13	Z13	X14	Y14	Z14	X15	Y15	Z15	X16	Y16	Z16	X17	Y17	Z17	X18	Y18	Z18	X19	Y19	Z19	X20	Y20	Z20	X21	Y21	Z21	X22	Y22	Z22	X23	Y23	Z23	X24	Y24	Z24	X25	Y25	Z25	X26	Y26	Z26	X27	Y27	Z27	X28	Y28	Z28	X29	Y29	Z29	X30	Y30	Z30	X31	Y31	Z31	X32	Y32	Z32	X33	Y33	Z33	X34	Y34	Z34	X35	Y35	Z35	X36	Y36	Z36	X37	Y37	Z37	X38	Y38	Z38	X39	Y39	Z39	X40	Y40	Z40	X41	Y41	Z41	X42	Y42	Z42	X43	Y43	Z43	X44	Y44	Z44	X45	Y45	Z45	X46	Y46	Z46	X47	Y47	Z47	X48	Y48	Z48	X49	Y49	Z49	X50	Y50	Z50	X51	Y51	Z51	X52	Y52	Z52	X53	Y53	Z53	X54	Y54	Z54	X55	Y55	Z55	X56	Y56	Z56	X57	Y57	Z57	X58	Y58	Z58	X59	Y59	Z59	X60	Y60	Z60	X61	Y61	Z61	X62	Y62	Z62	X63	Y63	Z63	X64	Y64	Z64	X65	Y65	Z65	X66	Y66	Z66	X67	Y67	Z67	X68	Y68	Z68	X69	Y69	Z69

752	3.76	764.34	828.97	375.07	9	2014	4	960.23	65.239	-102.99	842.59	367.99	-41.74	566.79	1361.2	-120	831.46	280.52	-101.67	699.53	1568.6	-23.858	990.5	88.429	-35.24	607.36	1189.1	295.09	1044.4	112.62	-71.111	714.2	1566.5	69.413	700.5	960.2	191.96	569.48	1069	337.74	515.15	1182.2	-206.52	704.92	1218.2	28.855	601.01	1362.7	189.43	624.58	931.19	358.45	537.09	578.98	219.15	645.33	1322.7	29.094	559.91	1540.5	112	688.16	588.48	-130.56	687.75	838.33	358.92	451.52	763.46	-264.02	617.46	645.38	215.89	502.27	496.1	199.55	606.25	733.75	-170.73	597.51	733.72	263.88	471.33	1308.8	163.86	445.66	260.6	182.26	467.03	251.97	123.65	698.65	693.11	-147.82	438.21	171.41	126.37	417.14	937.28	-243.75	450.3	1067.5	-223.18	464	810.01	-221.38	742.36	485.07	-102.76	510.59	1403.8	51.461	480.65	33.839	92.917	565.35	655.96	240.08	440.01	944.43	9.2551	549.6	27.139	125.29	495.44	334.84	127.26	858.05	282.79	-46.82	405.34	821.68	-260.62	647.27	662.98	-146.24	431.66	1044	-144.73	874.82	199.16	-55.167	445.67	954.72	97.827	887.02	87.969	-3.9595	442.84	949.58	53.541	370.54	71.939	150.34	384.98	75.344	68.284	540.83	1535.7	-29.781	303.09	46.327	117.02	496.76	29.651	159.58	740.61	871.99	320.91	434.03	1137.6	56.764	683.34	945.17	-103.5	819.64	29.501	-40.136	617.84	852.08	-47.406	567.38	951.13	48.884	691.92	952.69	44.228	691.92	952.69	44.228	629.51	862.3	153.5	771.78	953.6	39.542	690.77	1032.6	40.232	696.55	956.74	123.99	865.95	79.225	-83.07	558.8	1028.3	247.57
753	3.765	771.65	829.1	374.07	9	2014	4	973.83	67.31	-103.35	850.29	368.4	-42.139	572.65	1360.2	-121.09	841.11	280.88	-102.44	705.43	1567.6	-24.912	1003.1	91.145	-35.333	613.42	1188.3	294.07	1057.1	116.17	-70.697	719.99	1565.6	68.381	706.32	959.49	191.46	575.71	1068.3	336.86	520.12	1181.4	-207.5	710.86	1217.2	28.087	606.68	1361.9	188.42	631.4	930.67	357.63	541.46	578.72	218.76	651.21	1321.8	28.12	565.66	1539.6	110.83	694.27	587.3	-131.82	695	838.05	357.91	454.27	762.88	-265.36	622.19	644.68	215.48	506.17	496.01	199.21	612.69	732.92	-171.71	602.75	733.07	263.5	477.05	1307.8	162.78	447.57	260.87	182.17	468.98	251.98	123.58	705.03	692.11	-148.26	439.45	171.67	126.35	420.99	936.83	-244.28	454.95	1066.8	-223.78	467.49	809.24	-222.72	748.55	484.01	-103.66	516.34	1402.8	50.327	480.73	33.916	92.918	570.15	655.52	239.73	446.21	943.24	8.319	549.77	26.919	125.5	498.16	334.59	127.15	867.26	283.46	-47.376	408.39	821.27	-261.09	653.5	661.94	-147.46	436.9	1043.2	-145.28	885.5	200.09	-55.868	451.78	953.68	96.823	899.38	88.922	-4.9226	449	948.46	52.571	370.93	72.797	150.36	385.37	76.016	68.305	546.72	1534.7	-30.977	303.27	47.694	117.11	497.04	29.948	159.98	747.66	872.03	319.96	439.98	1136.5	55.744	689.73	944.24	-104.12	833.24	29.229	-41.607	624.22	851.07	-48.069	573.51	950.16	48.12	698.03	951.86	43.67	698.03	951.86	43.67	635.5	861.44	152.93	777.89	952.87	39.137	696.79	1031.7	39.617	702.5	955.98	123.44	879.15	79.739	-84.038	564.85	1027.4	246.76
754	3.77	778.83	829.16	373.05	9	2014	4	986.54	69.145	-103.66	857.82	368.67	-42.501	578.53	1359.2	-122.21	850.39	281.17	-103.15	711.32	1566.6	-25.982	1014.9	93.529	-35.402	619.41	1187.6	293.04	1068.9	119.3	-70.273	725.77	1564.7	67.332	712.17	958.83	190.99	581.91	1067.5	335.93	525.16	1180.5	-208.51	716.81	1216.3	27.284	612.35	1361.1	187.4	638.12	930.13	356.78	545.93	578.46	218.36	657.11	1320.9	27.115	571.4	1538.7	109.64	700.52	586.21	-133.01	702.14	837.73	356.88	457.16	762.29	-266.68	627	643.99	215.06	510.18	495.92	198.87	619.2	732.12	-172.71	608.08	732.44	263.09	482.76	1306.8	161.66	449.6	261.16	182.1	470.98	252.01	123.5	711.49	691.18	-148.71	440.74	171.96	126.36	424.98	936.35	-244.83	459.71	1066	-224.41	471.09	808.45	-224.06	754.86	483.02	-104.51	522.09	1401.8	49.162	480.8	34.007	92.935	575.04	655.08	239.34	452.47	942.08	7.3334	549.94	26.705	125.7	500.95	334.34	127.02	876.11	283.98	-47.886	411.59	820.84	-261.59	659.83	660.96	-148.64	442.23	1042.4	-145.86	895.64	200.86	-56.512	457.92	952.64	95.765	910.95	89.763	-5.7756	455.2	947.36	51.549	371.36	73.703	150.44	385.75	76.733	68.384	552.61	1533.7	-32.197	303.46	49.134	117.3	497.33	30.28	160.4	754.6	872	318.98	445.95	1135.5	54.682	696.19	943.31	-104.73	845.95	28.978	-42.99	630.66	850.07	-48.708	579.69	949.21	47.34	704.18	951.07	43.131	704.18	951.07	43.131	641.52	860.63	152.38	784.05	952.17	38.758	702.85	1031	39.008	708.49	955.26	122.91	891.53	80.161	-84.926	570.87	1026.5	245.9
755	3.775	785.88	829.16	372	9	2014	4	998.35	70.694	-103.92	865.18	368.8	-42.831	584.42	1358.2	-123.35	859.29	281.34	-103.8	717.21	1565.7	-27.07	1025.9	95.531	-35.448	625.34	1186.8	292	1080	121.95	-69.847	731.55	1563.8	66.267	718.05	958.23	190.54	588.08	1066.8	334.95	530.29	1179.7	-209.54	722.78	1215.4	26.445	618	1360.3	186.35	644.76	929.57	355.89	550.51	578.2	217.95	663.01	1320	26.08	577.12	1537.8	108.42	706.94	585.22	-134.12	709.14	837.38	355.84	460.19	761.68	-267.96	631.91	643.3	214.6	514.32	495.82	198.52	625.79	731.35	-173.7	613.48	731.81	262.65	488.46	1305.8	160.5	451.74	261.46	182.04	473.04	252.05	123.43	718.04	690.33	-149.16	442.08	172.28	126.39	429.11	935.85	-245.41	464.57	1065.2	-225.06	474.81	807.65	-225.39	761.31	482.1	-105.3	527.84	1400.8	47.966	480.87	34.111	92.968	580.01	654.66	238.92	458.79	940.94	6.2982	550.1	26.498	125.91	503.82	334.08	126.88	884.6	284.35	-48.35	414.95	820.39	-262.12	666.28	660.04	-149.78	447.65	1041.5	-146.48	905.23	201.46	-57.099	464.1	951.63	94.655	921.73	90.456	-6.5136	461.44	946.28	50.477	371.83	74.658	150.6	386.13	77.496	68.523	558.5	1532.8	-33.441	303.67	50.65	117.58	497.64	30.646	160.86	761.42	871.9	317.97	451.96	1134.5	53.577	702.71	942.39	-105.32	857.75	28.721	-44.276	637.16	849.08	-49.326	585.91	948.3	46.543	710.38	950.31	42.609	710.38	950.31	42.609	647.59	859.86	151.86	790.26	951.51	38.403	708.95	1030.2	38.406	714.52	954.58	122.39	903.08	80.458	-85.73	576.88	1025.6	244.98
